<svg xmlns="http://www.w3.org/2000/svg" width="1000" height="223.4" viewBox="0 0 264.58333 59.107654"><path d="M71.964 26.656c0-8.15 6.85-14.785 15-14.785 4.505 0 7.71 1.77 10.13 4.073l-2.849 2.848c-1.728-1.623-4.073-2.882-7.285-2.882-5.95 0-10.602 4.791-10.602 10.742 0 5.952 4.651 10.75 10.6 10.75 3.858 0 6.053-1.55 7.462-2.96 1.153-1.154 1.909-2.812 2.2-5.084h-9.656v-4.03h13.593c.143.721.218 1.586.218 2.522 0 3.025-.83 6.778-3.501 9.449-2.6 2.705-5.914 4.147-10.314 4.147-8.152 0-15.002-6.629-15.002-14.784zm39.799-4.254c-5.264 0-9.561 4.005-9.561 9.518 0 5.484 4.294 9.517 9.561 9.517s9.555-4.039 9.555-9.52c0-5.513-4.291-9.518-9.555-9.515zm0 15.291c-2.882 0-5.373-2.378-5.373-5.77 0-3.427 2.488-5.771 5.373-5.771 2.882 0 5.37 2.341 5.37 5.77 0 3.39-2.485 5.771-5.37 5.771zm20.848-15.29c-5.264 0-9.555 4.004-9.555 9.517 0 5.484 4.29 9.517 9.555 9.517 5.264 0 9.554-4.039 9.554-9.52 0-5.513-4.287-9.518-9.554-9.515zm0 15.29c-2.883 0-5.373-2.378-5.373-5.77 0-3.427 2.487-5.771 5.373-5.771 2.882 0 5.372 2.341 5.372 5.77 0 3.39-2.49 5.771-5.372 5.771zm25.586-14.713v1.549h-.143c-.936-1.123-2.74-2.13-5.01-2.13-4.76 0-9.128 4.185-9.128 9.561 0 5.332 4.365 9.483 9.129 9.483 2.27 0 4.073-1.007 5.009-2.16h.143v1.367c0 3.641-1.947 5.59-5.084 5.59-2.562 0-4.148-1.84-4.798-3.385l-3.644 1.514c1.045 2.522 3.825 5.625 8.439 5.625 4.9 0 9.048-2.889 9.048-9.919V22.977Zm-4.795 14.713c-2.882 0-5.304-2.419-5.304-5.733 0-3.352 2.419-5.805 5.304-5.805 2.848 0 5.084 2.45 5.084 5.805.003 3.314-2.233 5.733-5.084 5.733zm11.644-24.811h4.185v27.983h-4.185zm15.656 24.811c-2.127 0-3.644-.976-4.611-2.882l12.729-5.27-.439-1.082c-.79-2.124-3.208-6.057-8.149-6.057-4.903 0-8.98 3.859-8.98 9.52 0 5.333 4.04 9.518 9.45 9.518 4.365 0 6.89-2.664 7.934-4.22l-3.246-2.16c-1.085 1.589-2.565 2.637-4.688 2.633zm-.327-11.613c1.657 0 3.063.83 3.532 2.018l-8.513 3.536c-.106-3.679 2.851-5.554 4.981-5.554zM259.926 22.62l-4.808 12.177h-.143l-4.99-12.178h-4.516l7.48 17.026-4.268 9.469h4.374l11.528-26.495ZM243.923 40.91V29.963c0-5.07-3.788-7.897-8.678-7.897-3.08 0-6.275 1.361-7.599 4.372l3.783 1.577c.809-1.577 2.312-2.094 3.896-2.094 2.202 0 4.442 1.323 4.477 3.677v.295c-.771-.44-2.421-1.104-4.446-1.104-4.077 0-8.227 2.24-8.227 6.428 0 3.824 3.344 6.283 7.092 6.283 2.868 0 4.445-1.285 5.435-2.79h.146v2.206h4.118zm-9.185-3.192c-1.396 0-3.344-.698-3.344-2.421 0-2.205 2.427-3.056 4.52-3.056 1.876 0 2.755.403 3.897.955a5.178 5.178 0 0 1-5.073 4.522zM223.943 41.19V14.548h-3.975V41.19zM208.773 14.6h-9.46v26.458h3.948V31.036h5.515c4.377 0 8.681-3.169 8.681-8.22 0-5.041-4.3-8.213-8.675-8.213zm.103 12.753h-5.615V18.28h5.615c2.951 0 4.633 2.448 4.633 4.536 0 2.052-1.682 4.536-4.633 4.536z" style="clip-rule:evenodd;fill:#5f6368;fill-opacity:1;fill-rule:evenodd"/><path fill="#ea4335" d="M25.184 28.228.23 54.196l.004.016c.766 2.82 3.392 4.896 6.51 4.896 1.246 0 2.416-.33 3.42-.91l.079-.047 28.085-15.894z"/><path fill="#fbbc04" d="m50.43 23.806-.024-.015-12.127-6.894-13.662 11.92 13.71 13.44 12.063-6.824c2.114-1.12 3.55-3.305 3.55-5.825 0-2.504-1.416-4.678-3.51-5.802z"/><path fill="#4285f4" d="M.229 4.91A6.385 6.385 0 0 0 0 6.61v45.887c.024.659.078 1.16.23 1.699l25.812-25.303Z"/><path fill="#34a853" d="M25.368 29.554 38.28 16.897 10.227.945A6.857 6.857 0 0 0 6.744 0C3.626 0 .996 2.08.23 4.904L.23 4.91z"/></svg>